<mxfile host="65bd71144e">
    <diagram id="wK_F3YlhojD_i_ohv7IS" name="Page-1">
        <mxGraphModel dx="1378" dy="815" grid="1" gridSize="10" guides="1" tooltips="1" connect="1" arrows="1" fold="1" page="1" pageScale="1" pageWidth="827" pageHeight="1169" math="0" shadow="0">
            <root>
                <mxCell id="0"/>
                <mxCell id="1" parent="0"/>
                <mxCell id="2" value="" style="whiteSpace=wrap;html=1;aspect=fixed;" vertex="1" parent="1">
                    <mxGeometry x="220" y="260" width="365" height="365" as="geometry"/>
                </mxCell>
                <mxCell id="41" style="edgeStyle=orthogonalEdgeStyle;rounded=0;orthogonalLoop=1;jettySize=auto;html=1;entryX=1;entryY=0.5;entryDx=0;entryDy=0;" edge="1" parent="1" source="28" target="33">
                    <mxGeometry relative="1" as="geometry">
                        <Array as="points">
                            <mxPoint x="883" y="670"/>
                        </Array>
                    </mxGeometry>
                </mxCell>
                <mxCell id="43" style="edgeStyle=orthogonalEdgeStyle;rounded=0;orthogonalLoop=1;jettySize=auto;html=1;entryX=1;entryY=0.5;entryDx=0;entryDy=0;" edge="1" parent="1" source="28" target="42">
                    <mxGeometry relative="1" as="geometry">
                        <Array as="points">
                            <mxPoint x="883" y="740"/>
                        </Array>
                    </mxGeometry>
                </mxCell>
                <mxCell id="28" value="" style="whiteSpace=wrap;html=1;aspect=fixed;" vertex="1" parent="1">
                    <mxGeometry x="670" y="260" width="365" height="365" as="geometry"/>
                </mxCell>
                <mxCell id="7" value="&lt;font color=&quot;#000000&quot;&gt;orchestrator&lt;/font&gt;" style="rounded=0;whiteSpace=wrap;html=1;shadow=0;strokeWidth=0;fillColor=#FFFFFF;" vertex="1" parent="1">
                    <mxGeometry x="420" y="357" width="90" height="60" as="geometry"/>
                </mxCell>
                <mxCell id="9" value="" style="rounded=0;whiteSpace=wrap;html=1;shadow=0;strokeWidth=0;fillColor=#B9D7E2;opacity=30;" vertex="1" parent="1">
                    <mxGeometry x="750" y="335" width="120" height="40" as="geometry"/>
                </mxCell>
                <mxCell id="11" value="&lt;font color=&quot;#000000&quot;&gt;runner(s)&lt;/font&gt;" style="rounded=0;whiteSpace=wrap;html=1;shadow=0;strokeWidth=0;fillColor=#FFFFFF;" vertex="1" parent="1">
                    <mxGeometry x="760" y="345" width="120" height="40" as="geometry"/>
                </mxCell>
                <mxCell id="18" value="" style="rounded=0;whiteSpace=wrap;html=1;shadow=0;strokeWidth=0;fillColor=#B9D7E2;opacity=30;" vertex="1" parent="1">
                    <mxGeometry x="750" y="405" width="120" height="40" as="geometry"/>
                </mxCell>
                <mxCell id="19" value="&lt;font color=&quot;#000000&quot;&gt;runner(s)&lt;/font&gt;" style="rounded=0;whiteSpace=wrap;html=1;shadow=0;strokeWidth=0;fillColor=#FFFFFF;" vertex="1" parent="1">
                    <mxGeometry x="760" y="415" width="120" height="40" as="geometry"/>
                </mxCell>
                <mxCell id="20" value="" style="rounded=0;whiteSpace=wrap;html=1;shadow=0;strokeWidth=0;fillColor=#B9D7E2;opacity=30;" vertex="1" parent="1">
                    <mxGeometry x="750" y="475" width="120" height="40" as="geometry"/>
                </mxCell>
                <mxCell id="21" value="&lt;font color=&quot;#000000&quot;&gt;runner(s)&lt;/font&gt;" style="rounded=0;whiteSpace=wrap;html=1;shadow=0;strokeWidth=0;fillColor=#FFFFFF;" vertex="1" parent="1">
                    <mxGeometry x="760" y="485" width="120" height="40" as="geometry"/>
                </mxCell>
                <mxCell id="22" value="&lt;font color=&quot;#000000&quot;&gt;orchestrator&lt;/font&gt;" style="rounded=0;whiteSpace=wrap;html=1;shadow=0;strokeWidth=0;fillColor=#FFFFFF;" vertex="1" parent="1">
                    <mxGeometry x="376" y="420" width="90" height="60" as="geometry"/>
                </mxCell>
                <mxCell id="23" value="&lt;font color=&quot;#000000&quot;&gt;orchestrator&lt;/font&gt;" style="rounded=0;whiteSpace=wrap;html=1;shadow=0;strokeWidth=0;fillColor=#FFFFFF;" vertex="1" parent="1">
                    <mxGeometry x="469" y="420" width="90" height="60" as="geometry"/>
                </mxCell>
                <mxCell id="27" value="update job" style="shape=flexArrow;endArrow=classic;html=1;" edge="1" parent="1">
                    <mxGeometry x="0.1429" y="10" width="50" height="50" relative="1" as="geometry">
                        <mxPoint x="720" y="475" as="sourcePoint"/>
                        <mxPoint x="580" y="475" as="targetPoint"/>
                        <mxPoint as="offset"/>
                    </mxGeometry>
                </mxCell>
                <mxCell id="29" value="&lt;b&gt;elastic&lt;/b&gt; cluster of runners &lt;br&gt;(self-hosted / managed)" style="text;html=1;align=center;verticalAlign=middle;resizable=0;points=[];autosize=1;strokeColor=none;" vertex="1" parent="1">
                    <mxGeometry x="745" y="580" width="150" height="30" as="geometry"/>
                </mxCell>
                <mxCell id="24" value="" style="shape=flexArrow;endArrow=classic;html=1;entryX=1;entryY=0.597;entryDx=0;entryDy=0;entryPerimeter=0;" edge="1" parent="1">
                    <mxGeometry width="50" height="50" relative="1" as="geometry">
                        <mxPoint x="720" y="426" as="sourcePoint"/>
                        <mxPoint x="579" y="426.03999999999996" as="targetPoint"/>
                    </mxGeometry>
                </mxCell>
                <mxCell id="25" value="request job" style="edgeLabel;html=1;align=center;verticalAlign=middle;resizable=0;points=[];" vertex="1" connectable="0" parent="24">
                    <mxGeometry x="-0.4533" y="-2" relative="1" as="geometry">
                        <mxPoint x="-41" y="11" as="offset"/>
                    </mxGeometry>
                </mxCell>
                <mxCell id="31" value="&lt;b&gt;elastic&lt;/b&gt; quorum of orchestrators&lt;br&gt;(control plane)" style="text;html=1;align=center;verticalAlign=middle;resizable=0;points=[];autosize=1;strokeColor=none;" vertex="1" parent="1">
                    <mxGeometry x="380" y="580" width="180" height="30" as="geometry"/>
                </mxCell>
                <mxCell id="39" style="edgeStyle=orthogonalEdgeStyle;rounded=0;orthogonalLoop=1;jettySize=auto;html=1;" edge="1" parent="1" source="32">
                    <mxGeometry relative="1" as="geometry">
                        <mxPoint x="230" y="453" as="targetPoint"/>
                    </mxGeometry>
                </mxCell>
                <mxCell id="49" value="plan" style="edgeLabel;html=1;align=center;verticalAlign=middle;resizable=0;points=[];" vertex="1" connectable="0" parent="39">
                    <mxGeometry x="-0.1429" y="-1" relative="1" as="geometry">
                        <mxPoint as="offset"/>
                    </mxGeometry>
                </mxCell>
                <mxCell id="32" value="&lt;font color=&quot;#000000&quot;&gt;launch app&lt;/font&gt;" style="rounded=0;whiteSpace=wrap;html=1;shadow=0;strokeWidth=0;fillColor=#FFFFFF;" vertex="1" parent="1">
                    <mxGeometry x="40" y="423" width="120" height="60" as="geometry"/>
                </mxCell>
                <mxCell id="33" value="job logs/ arcifacts" style="rounded=0;whiteSpace=wrap;html=1;shadow=0;strokeWidth=1;fillColor=#2A2A2A;" vertex="1" parent="1">
                    <mxGeometry x="220" y="640" width="370" height="60" as="geometry"/>
                </mxCell>
                <mxCell id="34" value="" style="rounded=0;whiteSpace=wrap;html=1;shadow=0;strokeWidth=0;fillColor=#FFFF33;" vertex="1" parent="1">
                    <mxGeometry x="230" y="446" width="120" height="5" as="geometry"/>
                </mxCell>
                <mxCell id="38" style="edgeStyle=orthogonalEdgeStyle;rounded=0;orthogonalLoop=1;jettySize=auto;html=1;exitX=1;exitY=0.25;exitDx=0;exitDy=0;entryX=0;entryY=0.5;entryDx=0;entryDy=0;" edge="1" parent="1" target="22">
                    <mxGeometry relative="1" as="geometry">
                        <mxPoint x="350" y="454.75" as="sourcePoint"/>
                    </mxGeometry>
                </mxCell>
                <mxCell id="40" value="&lt;font color=&quot;#000000&quot;&gt;queue&lt;/font&gt;" style="rounded=0;whiteSpace=wrap;html=1;shadow=0;strokeWidth=0;fillColor=#FFFF33;" vertex="1" parent="1">
                    <mxGeometry x="230" y="455" width="120" height="19" as="geometry"/>
                </mxCell>
                <mxCell id="42" value="cache service" style="rounded=0;whiteSpace=wrap;html=1;shadow=0;strokeWidth=1;fillColor=#2A2A2A;" vertex="1" parent="1">
                    <mxGeometry x="220" y="710" width="370" height="60" as="geometry"/>
                </mxCell>
                <mxCell id="44" value="" style="aspect=fixed;perimeter=ellipsePerimeter;html=1;align=center;shadow=0;dashed=0;spacingTop=3;image;image=img/lib/active_directory/database.svg;strokeWidth=1;fillColor=#2A2A2A;" vertex="1" parent="1">
                    <mxGeometry x="420" y="515" width="33.78" height="25" as="geometry"/>
                </mxCell>
                <mxCell id="45" value="" style="aspect=fixed;perimeter=ellipsePerimeter;html=1;align=center;shadow=0;dashed=0;spacingTop=3;image;image=img/lib/active_directory/database.svg;strokeWidth=1;fillColor=#2A2A2A;" vertex="1" parent="1">
                    <mxGeometry x="420" y="515" width="46" height="34.04" as="geometry"/>
                </mxCell>
                <mxCell id="46" value="" style="aspect=fixed;perimeter=ellipsePerimeter;html=1;align=center;shadow=0;dashed=0;spacingTop=3;image;image=img/lib/active_directory/database.svg;strokeWidth=1;fillColor=#2A2A2A;" vertex="1" parent="1">
                    <mxGeometry x="451.22" y="516" width="45.94" height="34" as="geometry"/>
                </mxCell>
                <mxCell id="47" value="" style="endArrow=classic;startArrow=classic;html=1;entryX=0.122;entryY=1.083;entryDx=0;entryDy=0;entryPerimeter=0;" edge="1" parent="1" target="23">
                    <mxGeometry width="50" height="50" relative="1" as="geometry">
                        <mxPoint x="480" y="520" as="sourcePoint"/>
                        <mxPoint x="670" y="480" as="targetPoint"/>
                    </mxGeometry>
                </mxCell>
            </root>
        </mxGraphModel>
    </diagram>
</mxfile>